<mxfile host="app.diagrams.net" agent="Mozilla/5.0 (Windows NT 10.0; Win64; x64) AppleWebKit/537.36 (KHTML, like Gecko) Chrome/131.0.0.0 Safari/537.36" version="26.0.1">
  <diagram name="第 1 页" id="IecsjVt82ufFRPE_AUKd">
    <mxGraphModel dx="1830" dy="1157" grid="0" gridSize="10" guides="1" tooltips="1" connect="1" arrows="1" fold="1" page="0" pageScale="1" pageWidth="827" pageHeight="1169" math="0" shadow="0">
      <root>
        <mxCell id="0" />
        <mxCell id="1" parent="0" />
        <mxCell id="2mCojHaLUwitvvttsCFq-54" value="" style="rounded=1;whiteSpace=wrap;html=1;fillColor=#EDEDED;dashed=1;strokeColor=#B3B3B3;" vertex="1" parent="1">
          <mxGeometry x="237" y="-187.5" width="389" height="313.5" as="geometry" />
        </mxCell>
        <mxCell id="2mCojHaLUwitvvttsCFq-25" value="" style="rounded=1;whiteSpace=wrap;html=1;fillColor=#EDEDED;dashed=1;strokeColor=#B3B3B3;" vertex="1" parent="1">
          <mxGeometry x="-189" y="-187.5" width="389" height="313.5" as="geometry" />
        </mxCell>
        <mxCell id="2mCojHaLUwitvvttsCFq-1" value="&lt;font style=&quot;font-size: 20px;&quot; face=&quot;Times New Roman&quot;&gt;Server&lt;/font&gt;" style="ellipse;shape=cloud;whiteSpace=wrap;html=1;fillColor=#E1D5E7;strokeColor=none;" vertex="1" parent="1">
          <mxGeometry x="-62" y="-169" width="135" height="88" as="geometry" />
        </mxCell>
        <mxCell id="2mCojHaLUwitvvttsCFq-17" value="" style="html=1;shadow=0;dashed=0;align=center;verticalAlign=middle;shape=mxgraph.arrows2.twoWayArrow;dy=0.65;dx=22;rotation=-45;fillColor=#D5E8D4;strokeColor=#97D077;" vertex="1" parent="1">
          <mxGeometry x="-127" y="-74" width="79" height="26" as="geometry" />
        </mxCell>
        <mxCell id="2mCojHaLUwitvvttsCFq-18" value="" style="html=1;shadow=0;dashed=0;align=center;verticalAlign=middle;shape=mxgraph.arrows2.twoWayArrow;dy=0.65;dx=22;rotation=-70;fillColor=#D5E8D4;strokeColor=#97D077;" vertex="1" parent="1">
          <mxGeometry x="-66" y="-45" width="79" height="26" as="geometry" />
        </mxCell>
        <mxCell id="2mCojHaLUwitvvttsCFq-19" value="" style="html=1;shadow=0;dashed=0;align=center;verticalAlign=middle;shape=mxgraph.arrows2.twoWayArrow;dy=0.65;dx=22;rotation=-133;fillColor=#D5E8D4;strokeColor=#97D077;" vertex="1" parent="1">
          <mxGeometry x="54" y="-65" width="79" height="26" as="geometry" />
        </mxCell>
        <mxCell id="2mCojHaLUwitvvttsCFq-33" value="" style="group" vertex="1" connectable="0" parent="1">
          <mxGeometry x="402" y="-56" width="65" height="55" as="geometry" />
        </mxCell>
        <mxCell id="2mCojHaLUwitvvttsCFq-29" value="" style="outlineConnect=0;dashed=0;verticalLabelPosition=bottom;verticalAlign=top;align=center;html=1;shape=mxgraph.aws3.management_console;fillColor=#A9C4EB;gradientColor=none;" vertex="1" parent="2mCojHaLUwitvvttsCFq-33">
          <mxGeometry x="11" width="54" height="55" as="geometry" />
        </mxCell>
        <mxCell id="2mCojHaLUwitvvttsCFq-30" value="" style="verticalLabelPosition=bottom;aspect=fixed;html=1;shape=mxgraph.salesforce.data;" vertex="1" parent="2mCojHaLUwitvvttsCFq-33">
          <mxGeometry y="28" width="21.87" height="27" as="geometry" />
        </mxCell>
        <mxCell id="2mCojHaLUwitvvttsCFq-34" value="" style="group" vertex="1" connectable="0" parent="1">
          <mxGeometry x="283" y="-155" width="65" height="55" as="geometry" />
        </mxCell>
        <mxCell id="2mCojHaLUwitvvttsCFq-27" value="" style="outlineConnect=0;dashed=0;verticalLabelPosition=bottom;verticalAlign=top;align=center;html=1;shape=mxgraph.aws3.management_console;fillColor=#A9C4EB;gradientColor=none;" vertex="1" parent="2mCojHaLUwitvvttsCFq-34">
          <mxGeometry x="11" width="54" height="55" as="geometry" />
        </mxCell>
        <mxCell id="2mCojHaLUwitvvttsCFq-28" value="" style="verticalLabelPosition=bottom;aspect=fixed;html=1;shape=mxgraph.salesforce.data;" vertex="1" parent="2mCojHaLUwitvvttsCFq-34">
          <mxGeometry y="28" width="21.87" height="27" as="geometry" />
        </mxCell>
        <mxCell id="2mCojHaLUwitvvttsCFq-35" value="" style="group" vertex="1" connectable="0" parent="1">
          <mxGeometry x="271" y="-42" width="65" height="55" as="geometry" />
        </mxCell>
        <mxCell id="2mCojHaLUwitvvttsCFq-31" value="" style="outlineConnect=0;dashed=0;verticalLabelPosition=bottom;verticalAlign=top;align=center;html=1;shape=mxgraph.aws3.management_console;fillColor=#A9C4EB;gradientColor=none;" vertex="1" parent="2mCojHaLUwitvvttsCFq-35">
          <mxGeometry x="11" width="54" height="55" as="geometry" />
        </mxCell>
        <mxCell id="2mCojHaLUwitvvttsCFq-32" value="" style="verticalLabelPosition=bottom;aspect=fixed;html=1;shape=mxgraph.salesforce.data;" vertex="1" parent="2mCojHaLUwitvvttsCFq-35">
          <mxGeometry y="28" width="21.87" height="27" as="geometry" />
        </mxCell>
        <mxCell id="2mCojHaLUwitvvttsCFq-36" value="" style="group" vertex="1" connectable="0" parent="1">
          <mxGeometry x="111" y="-16" width="65" height="55" as="geometry" />
        </mxCell>
        <mxCell id="2mCojHaLUwitvvttsCFq-23" value="" style="outlineConnect=0;dashed=0;verticalLabelPosition=bottom;verticalAlign=top;align=center;html=1;shape=mxgraph.aws3.management_console;fillColor=#A9C4EB;gradientColor=none;" vertex="1" parent="2mCojHaLUwitvvttsCFq-36">
          <mxGeometry x="11" width="54" height="55" as="geometry" />
        </mxCell>
        <mxCell id="2mCojHaLUwitvvttsCFq-24" value="" style="verticalLabelPosition=bottom;aspect=fixed;html=1;shape=mxgraph.salesforce.data;" vertex="1" parent="2mCojHaLUwitvvttsCFq-36">
          <mxGeometry y="28" width="21.87" height="27" as="geometry" />
        </mxCell>
        <mxCell id="2mCojHaLUwitvvttsCFq-37" value="" style="group" vertex="1" connectable="0" parent="1">
          <mxGeometry x="-80" y="27" width="65" height="55" as="geometry" />
        </mxCell>
        <mxCell id="2mCojHaLUwitvvttsCFq-21" value="" style="outlineConnect=0;dashed=0;verticalLabelPosition=bottom;verticalAlign=top;align=center;html=1;shape=mxgraph.aws3.management_console;fillColor=#A9C4EB;gradientColor=none;" vertex="1" parent="2mCojHaLUwitvvttsCFq-37">
          <mxGeometry x="11" width="54" height="55" as="geometry" />
        </mxCell>
        <mxCell id="2mCojHaLUwitvvttsCFq-22" value="" style="verticalLabelPosition=bottom;aspect=fixed;html=1;shape=mxgraph.salesforce.data;" vertex="1" parent="2mCojHaLUwitvvttsCFq-37">
          <mxGeometry y="28" width="21.87" height="27" as="geometry" />
        </mxCell>
        <mxCell id="2mCojHaLUwitvvttsCFq-38" value="" style="group" vertex="1" connectable="0" parent="1">
          <mxGeometry x="-168" y="-16" width="65" height="55" as="geometry" />
        </mxCell>
        <mxCell id="2mCojHaLUwitvvttsCFq-4" value="" style="outlineConnect=0;dashed=0;verticalLabelPosition=bottom;verticalAlign=top;align=center;html=1;shape=mxgraph.aws3.management_console;fillColor=#A9C4EB;gradientColor=none;" vertex="1" parent="2mCojHaLUwitvvttsCFq-38">
          <mxGeometry x="11" width="54" height="55" as="geometry" />
        </mxCell>
        <mxCell id="2mCojHaLUwitvvttsCFq-3" value="" style="verticalLabelPosition=bottom;aspect=fixed;html=1;shape=mxgraph.salesforce.data;" vertex="1" parent="2mCojHaLUwitvvttsCFq-38">
          <mxGeometry y="28" width="21.87" height="27" as="geometry" />
        </mxCell>
        <mxCell id="2mCojHaLUwitvvttsCFq-42" value="" style="group" vertex="1" connectable="0" parent="1">
          <mxGeometry x="422" y="-174" width="65" height="55" as="geometry" />
        </mxCell>
        <mxCell id="2mCojHaLUwitvvttsCFq-43" value="" style="outlineConnect=0;dashed=0;verticalLabelPosition=bottom;verticalAlign=top;align=center;html=1;shape=mxgraph.aws3.management_console;fillColor=#A9C4EB;gradientColor=none;" vertex="1" parent="2mCojHaLUwitvvttsCFq-42">
          <mxGeometry x="11" width="54" height="55" as="geometry" />
        </mxCell>
        <mxCell id="2mCojHaLUwitvvttsCFq-44" value="" style="verticalLabelPosition=bottom;aspect=fixed;html=1;shape=mxgraph.salesforce.data;" vertex="1" parent="2mCojHaLUwitvvttsCFq-42">
          <mxGeometry y="28" width="21.87" height="27" as="geometry" />
        </mxCell>
        <mxCell id="2mCojHaLUwitvvttsCFq-45" value="" style="group" vertex="1" connectable="0" parent="1">
          <mxGeometry x="530" y="-100" width="65" height="55" as="geometry" />
        </mxCell>
        <mxCell id="2mCojHaLUwitvvttsCFq-46" value="" style="outlineConnect=0;dashed=0;verticalLabelPosition=bottom;verticalAlign=top;align=center;html=1;shape=mxgraph.aws3.management_console;fillColor=#A9C4EB;gradientColor=none;" vertex="1" parent="2mCojHaLUwitvvttsCFq-45">
          <mxGeometry x="11" width="54" height="55" as="geometry" />
        </mxCell>
        <mxCell id="2mCojHaLUwitvvttsCFq-47" value="" style="verticalLabelPosition=bottom;aspect=fixed;html=1;shape=mxgraph.salesforce.data;" vertex="1" parent="2mCojHaLUwitvvttsCFq-45">
          <mxGeometry y="28" width="21.87" height="27" as="geometry" />
        </mxCell>
        <mxCell id="2mCojHaLUwitvvttsCFq-48" value="" style="group" vertex="1" connectable="0" parent="1">
          <mxGeometry x="320" y="53" width="65" height="55" as="geometry" />
        </mxCell>
        <mxCell id="2mCojHaLUwitvvttsCFq-49" value="" style="outlineConnect=0;dashed=0;verticalLabelPosition=bottom;verticalAlign=top;align=center;html=1;shape=mxgraph.aws3.management_console;fillColor=#A9C4EB;gradientColor=none;" vertex="1" parent="2mCojHaLUwitvvttsCFq-48">
          <mxGeometry x="11" width="54" height="55" as="geometry" />
        </mxCell>
        <mxCell id="2mCojHaLUwitvvttsCFq-50" value="" style="verticalLabelPosition=bottom;aspect=fixed;html=1;shape=mxgraph.salesforce.data;" vertex="1" parent="2mCojHaLUwitvvttsCFq-48">
          <mxGeometry y="28" width="21.87" height="27" as="geometry" />
        </mxCell>
        <mxCell id="2mCojHaLUwitvvttsCFq-51" value="" style="group" vertex="1" connectable="0" parent="1">
          <mxGeometry x="489" y="30" width="65" height="55" as="geometry" />
        </mxCell>
        <mxCell id="2mCojHaLUwitvvttsCFq-52" value="" style="outlineConnect=0;dashed=0;verticalLabelPosition=bottom;verticalAlign=top;align=center;html=1;shape=mxgraph.aws3.management_console;fillColor=#A9C4EB;gradientColor=none;" vertex="1" parent="2mCojHaLUwitvvttsCFq-51">
          <mxGeometry x="11" width="54" height="55" as="geometry" />
        </mxCell>
        <mxCell id="2mCojHaLUwitvvttsCFq-53" value="" style="verticalLabelPosition=bottom;aspect=fixed;html=1;shape=mxgraph.salesforce.data;" vertex="1" parent="2mCojHaLUwitvvttsCFq-51">
          <mxGeometry y="28" width="21.87" height="27" as="geometry" />
        </mxCell>
        <mxCell id="2mCojHaLUwitvvttsCFq-55" style="rounded=0;orthogonalLoop=1;jettySize=auto;html=1;" edge="1" parent="1" source="2mCojHaLUwitvvttsCFq-43" target="2mCojHaLUwitvvttsCFq-29">
          <mxGeometry relative="1" as="geometry" />
        </mxCell>
        <mxCell id="2mCojHaLUwitvvttsCFq-56" style="rounded=0;orthogonalLoop=1;jettySize=auto;html=1;" edge="1" parent="1" source="2mCojHaLUwitvvttsCFq-27">
          <mxGeometry relative="1" as="geometry">
            <mxPoint x="434" y="-159" as="targetPoint" />
          </mxGeometry>
        </mxCell>
        <mxCell id="2mCojHaLUwitvvttsCFq-57" style="rounded=0;orthogonalLoop=1;jettySize=auto;html=1;exitX=0.5;exitY=1;exitDx=0;exitDy=0;exitPerimeter=0;" edge="1" parent="1" source="2mCojHaLUwitvvttsCFq-27" target="2mCojHaLUwitvvttsCFq-31">
          <mxGeometry relative="1" as="geometry" />
        </mxCell>
        <mxCell id="2mCojHaLUwitvvttsCFq-58" style="rounded=0;orthogonalLoop=1;jettySize=auto;html=1;entryX=0.5;entryY=1;entryDx=0;entryDy=0;entryPerimeter=0;" edge="1" parent="1" source="2mCojHaLUwitvvttsCFq-31" target="2mCojHaLUwitvvttsCFq-27">
          <mxGeometry relative="1" as="geometry" />
        </mxCell>
        <mxCell id="2mCojHaLUwitvvttsCFq-60" style="rounded=0;orthogonalLoop=1;jettySize=auto;html=1;exitX=0;exitY=0.25;exitDx=0;exitDy=0;exitPerimeter=0;" edge="1" parent="1" source="2mCojHaLUwitvvttsCFq-29" target="2mCojHaLUwitvvttsCFq-31">
          <mxGeometry relative="1" as="geometry" />
        </mxCell>
        <mxCell id="2mCojHaLUwitvvttsCFq-61" style="rounded=0;orthogonalLoop=1;jettySize=auto;html=1;exitX=0.75;exitY=1;exitDx=0;exitDy=0;exitPerimeter=0;" edge="1" parent="1" source="2mCojHaLUwitvvttsCFq-31" target="2mCojHaLUwitvvttsCFq-49">
          <mxGeometry relative="1" as="geometry" />
        </mxCell>
        <mxCell id="2mCojHaLUwitvvttsCFq-62" style="rounded=0;orthogonalLoop=1;jettySize=auto;html=1;exitX=0.5;exitY=1;exitDx=0;exitDy=0;exitPerimeter=0;" edge="1" parent="1" source="2mCojHaLUwitvvttsCFq-29" target="2mCojHaLUwitvvttsCFq-49">
          <mxGeometry relative="1" as="geometry" />
        </mxCell>
        <mxCell id="2mCojHaLUwitvvttsCFq-63" style="rounded=0;orthogonalLoop=1;jettySize=auto;html=1;entryX=0;entryY=0.25;entryDx=0;entryDy=0;entryPerimeter=0;" edge="1" parent="1" source="2mCojHaLUwitvvttsCFq-49" target="2mCojHaLUwitvvttsCFq-52">
          <mxGeometry relative="1" as="geometry" />
        </mxCell>
        <mxCell id="2mCojHaLUwitvvttsCFq-64" style="rounded=0;orthogonalLoop=1;jettySize=auto;html=1;exitX=0.965;exitY=0.035;exitDx=0;exitDy=0;exitPerimeter=0;entryX=0.5;entryY=1;entryDx=0;entryDy=0;entryPerimeter=0;" edge="1" parent="1" source="2mCojHaLUwitvvttsCFq-49" target="2mCojHaLUwitvvttsCFq-29">
          <mxGeometry relative="1" as="geometry" />
        </mxCell>
        <mxCell id="2mCojHaLUwitvvttsCFq-65" style="rounded=0;orthogonalLoop=1;jettySize=auto;html=1;exitX=1;exitY=0.5;exitDx=0;exitDy=0;exitPerimeter=0;" edge="1" parent="1" source="2mCojHaLUwitvvttsCFq-43" target="2mCojHaLUwitvvttsCFq-46">
          <mxGeometry relative="1" as="geometry" />
        </mxCell>
        <mxCell id="2mCojHaLUwitvvttsCFq-67" style="rounded=0;orthogonalLoop=1;jettySize=auto;html=1;exitX=0.5;exitY=1;exitDx=0;exitDy=0;exitPerimeter=0;" edge="1" parent="1" source="2mCojHaLUwitvvttsCFq-46" target="2mCojHaLUwitvvttsCFq-52">
          <mxGeometry relative="1" as="geometry" />
        </mxCell>
        <mxCell id="2mCojHaLUwitvvttsCFq-68" style="rounded=0;orthogonalLoop=1;jettySize=auto;html=1;entryX=0.5;entryY=1;entryDx=0;entryDy=0;entryPerimeter=0;" edge="1" parent="1" source="2mCojHaLUwitvvttsCFq-52" target="2mCojHaLUwitvvttsCFq-46">
          <mxGeometry relative="1" as="geometry" />
        </mxCell>
        <mxCell id="2mCojHaLUwitvvttsCFq-69" style="rounded=0;orthogonalLoop=1;jettySize=auto;html=1;exitX=1;exitY=0.25;exitDx=0;exitDy=0;exitPerimeter=0;entryX=0;entryY=0.25;entryDx=0;entryDy=0;entryPerimeter=0;" edge="1" parent="1" source="2mCojHaLUwitvvttsCFq-29" target="2mCojHaLUwitvvttsCFq-46">
          <mxGeometry relative="1" as="geometry" />
        </mxCell>
        <mxCell id="2mCojHaLUwitvvttsCFq-70" style="rounded=0;orthogonalLoop=1;jettySize=auto;html=1;entryX=1;entryY=0.5;entryDx=0;entryDy=0;entryPerimeter=0;" edge="1" parent="1" source="2mCojHaLUwitvvttsCFq-46" target="2mCojHaLUwitvvttsCFq-43">
          <mxGeometry relative="1" as="geometry" />
        </mxCell>
        <mxCell id="2mCojHaLUwitvvttsCFq-71" value="" style="group" vertex="1" connectable="0" parent="1">
          <mxGeometry x="8" y="27" width="65" height="55" as="geometry" />
        </mxCell>
        <mxCell id="2mCojHaLUwitvvttsCFq-72" value="" style="outlineConnect=0;dashed=0;verticalLabelPosition=bottom;verticalAlign=top;align=center;html=1;shape=mxgraph.aws3.management_console;fillColor=#A9C4EB;gradientColor=none;" vertex="1" parent="2mCojHaLUwitvvttsCFq-71">
          <mxGeometry x="11" width="54" height="55" as="geometry" />
        </mxCell>
        <mxCell id="2mCojHaLUwitvvttsCFq-73" value="" style="verticalLabelPosition=bottom;aspect=fixed;html=1;shape=mxgraph.salesforce.data;" vertex="1" parent="2mCojHaLUwitvvttsCFq-71">
          <mxGeometry y="28" width="21.87" height="27" as="geometry" />
        </mxCell>
        <mxCell id="2mCojHaLUwitvvttsCFq-74" value="" style="html=1;shadow=0;dashed=0;align=center;verticalAlign=middle;shape=mxgraph.arrows2.twoWayArrow;dy=0.65;dx=22;rotation=-105;fillColor=#D5E8D4;strokeColor=#97D077;" vertex="1" parent="1">
          <mxGeometry x="-6" y="-39" width="79" height="26" as="geometry" />
        </mxCell>
      </root>
    </mxGraphModel>
  </diagram>
</mxfile>
